{"title":"Glory 25 Milan 720p WEB-DL x264 -={SPARROW}=-","uid":12709048,"size":2188809238,"categoryP":"video","categoryS":"hd___tv_shows","magnet":"?xt=urn:btih:6cbd9ce213b125036c95396b2b0217c77decaf12&amp;dn=Glory+25+Milan+720p+WEB-DL+x264+-%3D%7BSPARROW%7D%3D-&amp;tr=udp%3A%2F%2Ftracker.leechers-paradise.org%3A6969&amp;tr=udp%3A%2F%2Fzer0day.ch%3A1337&amp;tr=udp%3A%2F%2Fopen.demonii.com%3A1337&amp;tr=udp%3A%2F%2Ftracker.coppersurfer.tk%3A6969&amp;tr=udp%3A%2F%2Fexodus.desync.com%3A6969","seeders":2,"leechers":0,"uploader":"CenaCme","files":2,"time":1446877553,"description":"Welterweight Contender Tournament Semifinal 1: Murthel Groenhart vs Nicola Gallo\r\nWelterweight Contender Tournament Semifinal 2: Yoann Kongolo vs Karim Ghajji\r\nGiorgio Petrosyan vs Josh Jauncey\r\nWinner Semifinal 1 vs Winner Semifinal 2\r\nRobin van Roosmalen vs Sittichai Sitsongpeenong\r\n\r\nGeneral\r\nComplete name                            : Glory.25.Milan.720p.WEB-DL.x264.mp4\r\nFormat                                   : MPEG-4\r\nFormat profile                           : Base Media\r\nCodec ID                                 : isom\r\nFile size                                : 2.04 GiB\r\nDuration                                 : 2h 10mn\r\nOverall bit rate                         : 2 232 Kbps\r\nWriting application                      : Lavf56.27.100\r\n\r\nVideo\r\nID                                       : 1\r\nFormat                                   : AVC\r\nFormat/Info                              : Advanced Video Codec\r\nFormat profile                           :   \r\nFormat settings, CABAC                   : Yes\r\nFormat settings, ReFrames                : 4 frames\r\nCodec ID                                 : avc1\r\nCodec ID/Info                            : Advanced Video Coding\r\nDuration                                 : 2h 10mn\r\nBit rate                                 : 2 096 Kbps\r\nWidth                                    : 1 280 pixels\r\nHeight                                   : 720 pixels\r\nDisplay aspect ratio                     : 16:9\r\nFrame rate mode                          : Variable\r\nFrame rate                               : 29.970 fps\r\nMinimum frame rate                       : 29.412 fps\r\nMaximum frame rate                       : 30.303 fps\r\nColor space                              : YUV\r\nChroma subsampling                       : 4:2:0\r\nBit depth                                : 8 bits\r\nScan type                                : Progressive\r\nBits/(Pixel*Frame)                       : 0.076\r\nStream size                              : 1.91 GiB (94%)\r\n\r\nAudio\r\nID                                       : 2\r\nFormat                                   : AAC\r\nFormat/Info                              : Advanced Audio Codec\r\nFormat profile                           : LC\r\nCodec ID                                 : 40\r\nDuration                                 : 2h 10mn\r\nBit rate mode                            : Constant\r\nBit rate                                 : 128 Kbps\r\nChannel(s)                               : 2 channels\r\nChannel positions                        : Front: L R\r\nSampling rate                            : 44.1 KHz\r\nCompression mode                         : Lossy\r\nStream size                              : 120 MiB (6%)\r\n\r\n\r\nThumb sheet:\r\n \nhttp://imgsparrow.co/image/98C","torrent":{"xt":"urn:btih:6cbd9ce213b125036c95396b2b0217c77decaf12","amp;dn":"Glory+25+Milan+720p+WEB-DL+x264+-%3D%7BSPARROW%7D%3D-","amp;tr":["udp%3A%2F%2Ftracker.leechers-paradise.org%3A6969","udp%3A%2F%2Fzer0day.ch%3A1337","udp%3A%2F%2Fopen.demonii.com%3A1337","udp%3A%2F%2Ftracker.coppersurfer.tk%3A6969","udp%3A%2F%2Fexodus.desync.com%3A6969"],"infoHash":"6cbd9ce213b125036c95396b2b0217c77decaf12","infoHashBuffer":{"type":"Buffer","data":[108,189,156,226,19,177,37,3,108,149,57,107,43,2,23,199,125,236,175,18]},"announce":[],"urlList":[]}}